<svg preserveAspectRatio="none" width="100%" height="100%" overflow="visible" style="display: block;" viewBox="0 0 16 16" fill="none" xmlns="http://www.w3.org/2000/svg">
<g id="Component 1">
<path id="Vector" d="M5.33333 1.33333L6.58667 2.58667" stroke="var(--stroke-0, #D1D5DC)" stroke-width="1.33333" stroke-linecap="round" stroke-linejoin="round"/>
<path id="Vector_2" d="M9.41333 2.58667L10.6667 1.33333" stroke="var(--stroke-0, #D1D5DC)" stroke-width="1.33333" stroke-linecap="round" stroke-linejoin="round"/>
<path id="Vector_3" d="M6 4.75333V4.08667C5.98791 3.8165 6.03069 3.54668 6.12575 3.2935C6.22081 3.04032 6.36618 2.80902 6.55309 2.61357C6.73999 2.41811 6.96456 2.26255 7.21325 2.15627C7.46193 2.04999 7.72956 1.9952 8 1.9952C8.27044 1.9952 8.53807 2.04999 8.78675 2.15627C9.03544 2.26255 9.26001 2.41811 9.44691 2.61357C9.63382 2.80902 9.77919 3.04032 9.87425 3.2935C9.96931 3.54668 10.0121 3.8165 10 4.08667V4.75333" stroke="var(--stroke-0, #D1D5DC)" stroke-width="1.33333" stroke-linecap="round" stroke-linejoin="round"/>
<path id="Vector_4" d="M8 13.3333C5.8 13.3333 4 11.5333 4 9.33333V7.33333C4 6.62609 4.28095 5.94781 4.78105 5.44771C5.28115 4.94762 5.95942 4.66667 6.66667 4.66667H9.33333C10.0406 4.66667 10.7189 4.94762 11.219 5.44771C11.719 5.94781 12 6.62609 12 7.33333V9.33333C12 11.5333 10.2 13.3333 8 13.3333Z" stroke="var(--stroke-0, #D1D5DC)" stroke-width="1.33333" stroke-linecap="round" stroke-linejoin="round"/>
<path id="Vector_5" d="M8 13.3333V7.33333" stroke="var(--stroke-0, #D1D5DC)" stroke-width="1.33333" stroke-linecap="round" stroke-linejoin="round"/>
<path id="Vector_6" d="M4.35333 6C3.06667 5.86667 2 4.73333 2 3.33333" stroke="var(--stroke-0, #D1D5DC)" stroke-width="1.33333" stroke-linecap="round" stroke-linejoin="round"/>
<path id="Vector_7" d="M4 8.66667H1.33333" stroke="var(--stroke-0, #D1D5DC)" stroke-width="1.33333" stroke-linecap="round" stroke-linejoin="round"/>
<path id="Vector_8" d="M2 14C2 12.6 3.13333 11.4 4.53333 11.3333" stroke="var(--stroke-0, #D1D5DC)" stroke-width="1.33333" stroke-linecap="round" stroke-linejoin="round"/>
<path id="Vector_9" d="M13.98 3.33333C13.98 4.73333 12.9133 5.86667 11.6467 6" stroke="var(--stroke-0, #D1D5DC)" stroke-width="1.33333" stroke-linecap="round" stroke-linejoin="round"/>
<path id="Vector_10" d="M14.6667 8.66667H12" stroke="var(--stroke-0, #D1D5DC)" stroke-width="1.33333" stroke-linecap="round" stroke-linejoin="round"/>
<path id="Vector_11" d="M11.4667 11.3333C12.8667 11.4 14 12.6 14 14" stroke="var(--stroke-0, #D1D5DC)" stroke-width="1.33333" stroke-linecap="round" stroke-linejoin="round"/>
</g>
</svg>
